HIERARCHY
ROOT hip
{
	OFFSET 0.000000 0.000000 0.000000
	CHANNELS 6 Xposition Yposition Zposition Xrotation Zrotation Yrotation 
	JOINT abdomen
	{
		OFFSET 0.000000 3.422050 0.000000
		CHANNELS 3 Xrotation Zrotation Yrotation 
		JOINT chest
		{
			OFFSET 0.000000 8.486693 -0.684411
			CHANNELS 3 Xrotation Zrotation Yrotation 
			JOINT neck
			{
				OFFSET 0.000000 10.266162 -0.273764
				CHANNELS 3 Xrotation Zrotation Yrotation 
				JOINT head
				{
					OFFSET 0.000000 3.148285 0.000000
					CHANNELS 3 Xrotation Zrotation Yrotation 
					End Site
					{
						OFFSET 0.000000 3.148289 0.000000
					}
				}
			}
			JOINT lCollar
			{
				OFFSET 3.422053 6.707223 -0.821293
				CHANNELS 3 Yrotation Zrotation Xrotation 
				JOINT lShldr
				{
					OFFSET 3.285171 0.000000 0.000000
					CHANNELS 3 Zrotation Yrotation Xrotation 
					JOINT lForeArm
					{
						OFFSET 10.129278 0.000000 0.000000
						CHANNELS 3 Yrotation Zrotation Xrotation 
						JOINT lHand
						{
							OFFSET 8.486692 0.000000 0.000000
							CHANNELS 3 Zrotation Yrotation Xrotation 
							End Site
							{
								OFFSET 4.106464 0.000000 0.000000
							}
						}
					}
				}
			}
			JOINT rCollar
			{
				OFFSET -3.558935 6.707223 -0.821293
				CHANNELS 3 Yrotation Zrotation Xrotation 
				JOINT rShldr
				{
					OFFSET -3.148289 0.000000 0.000000
					CHANNELS 3 Zrotation Yrotation Xrotation 
					JOINT rForeArm
					{
						OFFSET -10.266159 0.000000 0.000000
						CHANNELS 3 Yrotation Zrotation Xrotation 
						JOINT rHand
						{
							OFFSET -8.349810 0.000000 0.000000
							CHANNELS 3 Zrotation Yrotation Xrotation 
							End Site
							{
								OFFSET -4.106464 0.000000 0.000000
							}
						}
					}
				}
			}
		}
	}
	JOINT lThigh
	{
		OFFSET 5.338403 -1.642589 1.368821
		CHANNELS 3 Xrotation Zrotation Yrotation 
		JOINT lShin
		{
			OFFSET -2.053232 -20.121670 0.000000
			CHANNELS 3 Xrotation Zrotation Yrotation 
			JOINT lFoot
			{
				OFFSET 0.000000 -19.300380 -1.231939
				CHANNELS 3 Xrotation Yrotation Zrotation 
				End Site
				{
					OFFSET 0.000000 -2.463878 4.653993
				}
			}
		}
	}
	JOINT rThigh
	{
		OFFSET -5.338403 -1.642589 1.368821
		CHANNELS 3 Xrotation Zrotation Yrotation 
		JOINT rShin
		{
			OFFSET 2.053232 -20.121670 0.000000
			CHANNELS 3 Xrotation Zrotation Yrotation 
			JOINT rFoot
			{
				OFFSET 0.000000 -19.300380 -1.231939
				CHANNELS 3 Xrotation Yrotation Zrotation 
				End Site
				{
					OFFSET 0.000000 -2.463878 4.653993
				}
			}
		}
	}
}
MOTION
Frames: 11
Frame Time: 0.033302
0.670772 43.483444 0.000000 0.000000 0.000000 -14.574584 -9.014235 -4.016580 -0.011451 -0.284746 -1.041257 -2.030123 12.965799 10.942135 -0.025823 0.772581 -2.765596 24.381647 0.000000 -3.009606 0.000000 -81.381790 21.022377 1.084353 -35.866573 7.437182 -2.221037 -21.422409 -24.240343 27.962671 -0.012274 4.920194 0.000527 82.995872 -22.012058 -0.016637 52.986065 -10.010321 -0.000848 31.407562 2.968573 28.924397 2.441336 1.015166 -0.207259 0.755853 -0.676193 0.035120 -1.291363 3.386239 -3.826667 -6.777095 -12.095539 0.016033 13.606547 5.626126 -1.079307 0.994375 0.087577 8.739915 
0.711875 43.483444 0.000000 0.000000 0.000000 -14.610929 -9.014235 -4.016580 -0.011451 -0.283527 -1.041122 -2.021019 12.970211 10.950966 -0.025809 0.752227 -2.551608 22.581045 0.000000 -3.009606 0.000000 -81.384621 21.022232 1.079498 -36.628601 7.753232 -2.119012 -22.396324 -24.059917 28.937384 -0.012274 4.920194 0.000527 82.995872 -22.012058 -0.016637 52.986065 -10.010321 -0.000848 31.498726 2.781480 28.946308 2.441130 1.019925 -0.206783 0.752599 -0.678547 0.035355 -1.285709 3.427076 -3.822444 -6.776901 -12.067352 0.015944 13.546288 5.357195 -1.032528 0.939439 0.070335 8.444960 
0.697858 43.483444 0.000000 0.000000 0.000000 -14.647272 -9.014235 -4.016580 -0.011451 -0.282307 -1.040987 -2.011915 12.974621 10.959794 -0.025795 0.725157 -2.338364 20.780655 0.000000 -3.009606 0.000000 -81.387444 21.022083 1.074643 -37.392094 8.068036 -2.012629 -23.365490 -23.864395 29.907343 -0.012274 4.920194 0.000527 82.995872 -22.012058 -0.016637 52.986065 -10.010321 -0.000848 31.589804 2.594344 28.967926 2.440923 1.024685 -0.206308 0.749344 -0.680902 0.035590 -1.280058 3.467914 -3.818226 -6.776706 -12.039165 0.015856 13.485838 5.088303 -0.985483 0.884405 0.053373 8.149938 
0.683841 43.483444 0.000000 0.000000 0.000000 -14.683619 -9.014235 -4.016580 -0.011451 -0.281087 -1.040853 -2.002811 12.979033 10.968625 -0.025781 0.691419 -2.126182 18.981325 0.000000 -3.009606 0.000000 -81.390266 21.021931 1.069786 -38.157017 8.381502 -1.901897 -24.329390 -23.653950 30.872046 -0.012274 4.920194 0.000527 82.995872 -22.012058 -0.016637 52.986065 -10.010321 -0.000848 31.680811 2.407163 28.989246 2.440717 1.029444 -0.205832 0.746090 -0.683256 0.035825 -1.274410 3.508753 -3.814011 -6.776511 -12.010979 0.015768 13.425184 4.819449 -0.938171 0.829276 0.036692 7.854853 
0.669824 43.483444 0.000000 0.000000 0.000000 -14.719966 -9.014235 -4.016580 -0.011451 -0.279867 -1.040718 -1.993707 12.983442 10.977453 -0.025765 0.651079 -1.915372 17.183907 0.000000 -3.009606 0.000000 -81.393089 21.021784 1.064934 -38.923328 8.693540 -1.786826 -25.287535 -23.428766 31.830988 -0.012274 4.920194 0.000527 82.995872 -22.012058 -0.016637 52.986065 -10.010321 -0.000848 31.771732 2.219943 29.010260 2.440511 1.034203 -0.205357 0.742835 -0.685611 0.036061 -1.268764 3.549592 -3.809800 -6.776318 -11.982792 0.015680 13.364332 4.550644 -0.890591 0.774054 0.020292 7.559709 
0.655806 43.483444 0.000000 0.000000 0.000000 -14.756311 -9.014235 -4.016580 -0.011451 -0.278647 -1.040584 -1.984603 12.987856 10.986284 -0.025749 0.604224 -1.706244 15.389243 0.000000 -3.009606 0.000000 -81.395912 21.021635 1.060078 -39.691010 9.004060 -1.667430 -26.239431 -23.189037 32.783688 -0.012274 4.920194 0.000527 82.995872 -22.012058 -0.016637 52.986065 -10.010321 -0.000848 31.862579 2.032682 29.030981 2.440305 1.038962 -0.204882 0.739581 -0.687965 0.036296 -1.263121 3.590431 -3.805593 -6.776124 -11.954605 0.015592 13.303276 4.281886 -0.842741 0.718741 0.004176 7.264511 
0.641789 43.483444 0.000000 0.000000 0.000000 -14.792655 -9.014235 -4.016580 -0.011451 -0.277427 -1.040449 -1.975499 12.992266 10.995113 -0.025733 0.550959 -1.499098 13.598175 0.000000 -3.009606 0.000000 -81.398743 21.021484 1.055222 -40.460014 9.312970 -1.543726 -27.184639 -22.935001 33.729698 -0.012274 4.920194 0.000527 82.995872 -22.012058 -0.016637 52.986065 -10.010321 -0.000848 31.953350 1.845384 29.051394 2.440099 1.043722 -0.204406 0.736326 -0.690320 0.036532 -1.257481 3.631269 -3.801389 -6.775928 -11.926415 0.015505 13.242016 4.013181 -0.794621 0.663339 -0.011658 6.969263 
0.627772 43.483444 0.000000 0.000000 0.000000 -14.829001 -9.014235 -4.016580 -0.011451 -0.276207 -1.040315 -1.966395 12.996676 11.003942 -0.025715 0.491404 -1.294226 11.811524 0.000000 -3.009606 0.000000 -81.401573 21.021339 1.050366 -41.230301 9.620180 -1.415729 -28.122700 -22.666885 34.668568 -0.012274 4.920194 0.000527 82.995872 -22.012058 -0.016637 52.986065 -10.010321 -0.000848 32.044052 1.658051 29.071520 2.439893 1.048481 -0.203931 0.733072 -0.692674 0.036768 -1.251844 3.672109 -3.797190 -6.775735 -11.898231 0.015417 13.180553 3.744532 -0.746230 0.607851 -0.027207 6.673968 
0.552079 43.483444 0.000000 0.000000 0.000000 -14.865347 -9.014235 -4.016580 -0.011451 -0.274987 -1.040182 -1.957291 13.001087 11.012772 -0.025697 0.425700 -1.091910 10.030115 0.000000 -3.009606 0.000000 -81.404396 21.021191 1.045512 -42.001823 9.925598 -1.283462 -29.053198 -22.384926 35.599869 -0.012274 4.920194 0.000527 82.995872 -22.012058 -0.016637 52.986065 -10.010321 -0.000848 32.134678 1.470685 29.091343 2.439687 1.053240 -0.203456 0.729817 -0.695029 0.037004 -1.246209 3.712949 -3.792995 -6.775540 -11.870044 0.015329 13.118881 3.475944 -0.697565 0.552278 -0.042471 6.378635 
0.476386 43.483444 0.000000 0.000000 0.000000 -14.901692 -9.014235 -4.016580 -0.011451 -0.273767 -1.040048 -1.948187 13.005497 11.021600 -0.025678 0.354001 -0.892424 8.254753 0.000000 -3.009606 0.000000 -81.407219 21.021038 1.040655 -42.774567 10.229140 -1.146944 -29.975748 -22.089417 36.523235 -0.012274 4.920194 0.000527 82.995872 -22.012058 -0.016637 52.986065 -10.010321 -0.000848 32.225235 1.283284 29.110868 2.439481 1.058000 -0.202981 0.726563 -0.697383 0.037240 -1.240577 3.753788 -3.788802 -6.775346 -11.841857 0.015242 13.056998 3.207419 -0.648626 0.496623 -0.057450 6.083262 
0.400693 43.483444 0.000000 0.000000 0.000000 -14.938039 -9.014235 -4.016580 -0.011451 -0.272547 -1.039915 -1.939083 13.009909 11.030429 -0.025659 0.276478 -0.696026 6.486221 0.000000 -3.009606 0.000000 -81.410065 21.020893 1.035799 -43.548462 10.530719 -1.006202 -30.889971 -21.780611 37.438267 -0.012274 4.920194 0.000527 82.995872 -22.012058 -0.016637 52.986065 -10.010321 -0.000848 32.315720 1.095854 29.130095 2.439275 1.062759 -0.202505 0.723308 -0.699738 0.037476 -1.234948 3.794629 -3.784615 -6.775153 -11.813670 0.015155 12.994908 2.938962 -0.599412 0.440888 -0.072143 5.787856 
